<svg aria-hidden="true" style="position: absolute; width: 0; height: 0; overflow: hidden;" version="1.1"
    xmlns="http://www.w3.org/2000/svg"
    xmlns:xlink="http://www.w3.org/1999/xlink">
    <defs>
        <symbol id="icon-project" viewBox="0 0 32 32">
            <path d="M31.466 0h-24c-0.295 0-0.534 0.239-0.534 0.534v0 8h1.066v-7.467h22.934v29.334c0 0.003 0 0.006 0 0.010 0 0.278-0.216 0.506-0.49 0.524l-0.002 0c-0.046 0-0.092-0.004-0.138-0.005-0.094-0.003-0.189-0.005-0.282-0.014-0.008 0-0.016 0-0.024-0.003-1.742-0.196-3.112-1.565-3.308-3.29l-0.002-0.017c0-0.008-0.002-0.016-0.003-0.022-0.012-0.114-0.019-0.245-0.019-0.379 0-0.001 0-0.002 0-0.003v0-1.066c0-0.295-0.239-0.534-0.534-0.534v0h-18.134v-9.6h-1.066v9.6h-4.266c-0.295 0-0.534 0.239-0.534 0.534v0 1.066c0.003 2.65 2.15 4.797 4.8 4.8h23.52c0.859-0.023 1.546-0.725 1.546-1.587 0-0.004-0-0.009-0-0.013v0.001-29.866c0 0 0 0 0 0 0-0.294-0.238-0.533-0.533-0.534h-0zM6.933 30.934c-2.061-0.002-3.731-1.672-3.734-3.733v-0.534h22.4v0.534c0.001 0.176 0.011 0.352 0.030 0.526 0.005 0.046 0.014 0.091 0.021 0.137 0.018 0.13 0.038 0.258 0.067 0.384 0.010 0.045 0.022 0.088 0.033 0.133 0.086 0.336 0.194 0.627 0.327 0.904l-0.012-0.029c0.013 0.026 0.024 0.053 0.037 0.077 0.067 0.136 0.141 0.266 0.221 0.394l0.030 0.054c0.087 0.136 0.181 0.267 0.282 0.394l0.017 0.023c0.219 0.275 0.459 0.517 0.722 0.731l0.009 0.007-20.449-0.002z"></path>
            <path d="M17.6 14.934c0.142 0 0.277-0.056 0.377-0.157l2.134-2.133c0.096-0.097 0.156-0.23 0.156-0.377s-0.060-0.281-0.156-0.377l-2.134-2.134c-0.096-0.096-0.23-0.156-0.377-0.156h-14.934c-1.473 0-2.667 1.194-2.667 2.667s1.194 2.667 2.667 2.667v0h14.934zM17.462 10.75l1.517 1.517-1.517 1.517-0.379-1.517 0.379-1.517zM4.266 10.666h12.118l-0.266 1.067h-10.784v1.066h10.784l0.266 1.066h-12.118v-3.2zM1.066 12.266c0-0.884 0.716-1.6 1.6-1.6v0h0.534v3.2h-0.534c-0.884 0-1.6-0.716-1.6-1.6v0zM12.266 22.934h16c0 0 0.001 0 0.001 0 0.295 0 0.534-0.239 0.534-0.534 0 0 0 0 0 0v0-16c-0.001-0.294-0.239-0.533-0.534-0.533-0.147 0-0.28 0.060-0.377 0.156v0l-16 16c-0.096 0.096-0.156 0.23-0.156 0.377 0 0.294 0.238 0.533 0.533 0.534h0zM27.733 7.687v1.379h-1.066v1.067h1.066v1.066h-1.066v1.066h1.066v1.067h-1.066v1.066h1.066v1.066h-1.066v1.067h1.066v1.066h-1.066v1.066h1.066v1.067h-1.066v1.066h1.066v1.066h-1.066v-1.066h-1.067v1.066h-1.066v-1.066h-1.067v1.066h-1.066v-1.066h-1.066v1.066h-1.067v-1.066h-1.066v1.066h-1.066v-1.066h-1.067v1.066h-1.066v-1.066h-1.066v1.066h-1.379l14.178-14.178z"></path>
            <path d="M19.992 19.734h5.075c0.295 0 0.534-0.239 0.534-0.534v0-5.074c-0-0.295-0.239-0.533-0.534-0.533-0.147 0-0.28 0.060-0.377 0.156v0l-5.075 5.075c-0.096 0.096-0.156 0.23-0.156 0.377 0 0.295 0.239 0.533 0.533 0.534v0zM24.534 15.414v3.253h-3.253l3.253-3.253zM24.534 3.2h-10.666v1.066h10.666v-1.066zM26.134 5.334h-13.866v1.066h13.866v-1.066zM12.267 16.533h-3.2v1.067h3.2v-1.067zM11.2 18.667h-2.133v1.066h2.134v-1.067z"></path>
        </symbol>
        <symbol id="icon-web-programming" viewBox="0 0 32 32">
            <path d="M12.625 22.425c-0.131-0-0.25-0.048-0.342-0.126l0.001 0.001-3.42-2.911c-0.114-0.097-0.186-0.241-0.186-0.402s0.072-0.305 0.185-0.402l0.001-0.001 3.419-2.911c0.092-0.078 0.211-0.126 0.342-0.126 0.292 0 0.528 0.236 0.528 0.528 0 0.161-0.072 0.305-0.185 0.402l-0.001 0.001-2.946 2.509 2.946 2.509c0.114 0.097 0.186 0.241 0.186 0.402 0 0.292-0.236 0.528-0.528 0.528-0 0-0.001 0-0.001 0h0zM19.374 22.425c-0 0-0 0-0 0-0.292 0-0.528-0.236-0.528-0.528 0-0.161 0.072-0.305 0.185-0.402l0.001-0.001 2.946-2.509-2.946-2.509c-0.114-0.097-0.186-0.241-0.186-0.402 0-0.292 0.236-0.528 0.528-0.528 0.131 0 0.251 0.048 0.343 0.127l-0.001-0.001 3.419 2.911c0.114 0.097 0.186 0.241 0.186 0.402s-0.072 0.305-0.185 0.402l-0.001 0.001-3.419 2.912c-0.091 0.078-0.21 0.125-0.34 0.125-0 0-0.001 0-0.001 0h0zM14.789 24.608c-0 0-0.001 0-0.001 0-0.292 0-0.528-0.236-0.528-0.528 0-0.039 0.004-0.077 0.012-0.113l-0.001 0.003 2.13-10.115c0.052-0.241 0.264-0.419 0.517-0.419 0.292 0 0.529 0.237 0.529 0.529 0 0.039-0.004 0.076-0.012 0.113l0.001-0.004-2.131 10.115c-0.052 0.241-0.263 0.42-0.516 0.42h-0z"></path>
            <path d="M28.452 30.119h-24.906c-1.958-0.003-3.544-1.589-3.547-3.546v-21.138c0.002-1.958 1.589-3.545 3.546-3.548h24.907c1.958 0.003 3.544 1.59 3.547 3.547v21.138c-0.003 1.958-1.59 3.544-3.547 3.547h-0zM3.547 2.944c-1.374 0.002-2.488 1.116-2.49 2.49v21.138c0.002 1.374 1.115 2.488 2.489 2.491h24.907c1.374-0.002 2.488-1.116 2.49-2.491v-21.138c-0.002-1.375-1.116-2.489-2.491-2.491h-24.906z"></path>
            <path d="M31.472 10.347h-30.944c-0.292 0-0.529-0.237-0.529-0.529s0.237-0.529 0.529-0.529v0h30.944c0.292 0 0.528 0.236 0.528 0.528s-0.236 0.528-0.528 0.528v0zM9.026 7.819c-0.923-0.002-1.67-0.75-1.671-1.672v-0c0.002-0.922 0.749-1.67 1.671-1.671h0c0.922 0.002 1.67 0.749 1.671 1.671v0c-0.001 0.923-0.749 1.671-1.671 1.673h-0zM9.026 5.531c-0.34 0-0.616 0.276-0.616 0.617s0.276 0.617 0.617 0.617c0 0 0 0 0.001 0h-0c0.34-0 0.616-0.276 0.616-0.617s-0.276-0.617-0.617-0.617c-0 0-0 0-0.001 0h0zM3.89 7.802c-0.922-0.002-1.67-0.749-1.671-1.671v-0c0.002-0.922 0.749-1.67 1.671-1.671h0c0.923 0.001 1.671 0.749 1.673 1.671v0c-0.002 0.923-0.75 1.67-1.672 1.671h-0zM3.89 5.515c-0.34 0.001-0.615 0.276-0.615 0.617s0.276 0.617 0.617 0.617c0 0 0.001 0 0.001 0h-0c0.34-0.001 0.615-0.276 0.615-0.617s-0.276-0.617-0.617-0.617c-0 0-0.001 0-0.001 0h0zM14.163 7.834c-0.922-0.002-1.67-0.749-1.671-1.671v-0c0.002-0.922 0.749-1.67 1.671-1.671h0c0.922 0.002 1.67 0.749 1.671 1.671v0c-0.002 0.922-0.749 1.67-1.671 1.671h-0zM14.163 5.547c-0.34 0.001-0.615 0.276-0.615 0.616s0.276 0.616 0.616 0.616c0 0 0.001 0 0.001 0h-0c0.34-0.001 0.615-0.276 0.615-0.616s-0.276-0.616-0.616-0.616c-0 0-0.001 0-0.001 0h0z"></path>
        </symbol>
        <symbol id="play-button" viewBox="0 0 32 32">
            <path fill="#4985ff" style="fill: var(--color1, #4985ff)" d="M32 16c0 8.837-7.163 16-16 16s-16-7.163-16-16c0-8.837 7.163-16 16-16s16 7.163 16 16z"></path>
            <path fill="#fff" style="fill: var(--color2, #fff)" d="M16 0c-8.836 0-16 7.163-16 16s7.164 16 16 16c8.836 0 16-7.163 16-16s-7.164-16-16-16zM21.53 16.848l-8 5c-0.15 0.095-0.333 0.152-0.53 0.152-0.552 0-1-0.447-1.001-1v-10c0-0 0-0.001 0-0.001 0-0.552 0.447-0.999 0.999-0.999 0.197 0 0.38 0.057 0.535 0.155l-0.004-0.002 8 5c0.284 0.18 0.469 0.492 0.469 0.848s-0.185 0.668-0.465 0.846l-0.004 0.002z"></path>
        </symbol>
        <symbol id="icon-play-button" viewBox="0 0 32 32">
            <path d="M16 0c-8.836 0-16 7.163-16 16s7.164 16 16 16c8.836 0 16-7.163 16-16s-7.164-16-16-16zM21.53 16.848l-8 5c-0.15 0.095-0.333 0.152-0.53 0.152-0.552 0-1-0.447-1.001-1v-10c0-0 0-0.001 0-0.001 0-0.552 0.447-0.999 0.999-0.999 0.197 0 0.38 0.057 0.535 0.155l-0.004-0.002 8 5c0.284 0.18 0.469 0.492 0.469 0.848s-0.185 0.668-0.465 0.846l-0.004 0.002z"></path>
        </symbol>
        <symbol id="icon-envelope" viewBox="0 0 32 32">
            <path d="M28.094 3.823h-24.181c-2.161 0.002-3.911 1.754-3.913 3.915v16.525c0 2.159 1.754 3.915 3.913 3.915h24.175c2.161-0.002 3.913-1.755 3.913-3.917v0-16.516c0-0.003 0-0.006 0-0.009 0-2.159-1.748-3.909-3.906-3.913h-0zM30.219 24.262c0 1.173-0.954 2.127-2.125 2.127h-24.181c-1.174-0.001-2.125-0.953-2.125-2.127 0 0 0 0 0 0v0-16.518c0-1.173 0.954-2.127 2.125-2.127h24.175c1.173 0 2.125 0.954 2.125 2.127v16.518h0.006z"></path>
            <path d="M20.181 15.795l7.827-7.019c0.181-0.165 0.294-0.402 0.294-0.665 0-0.231-0.087-0.442-0.231-0.601l0.001 0.001c-0.165-0.181-0.402-0.294-0.665-0.294-0.23 0-0.44 0.087-0.599 0.229l0.001-0.001-10.795 9.685-2.103-1.877c-0.006-0.009-0.013-0.015-0.013-0.021-0.045-0.045-0.093-0.087-0.144-0.126l-0.003-0.002-8.567-7.663c-0.157-0.142-0.367-0.229-0.597-0.229-0.266 0-0.504 0.116-0.668 0.301l-0.001 0.001c-0.142 0.157-0.228 0.366-0.228 0.596 0 0.266 0.117 0.505 0.302 0.669l0.001 0.001 7.919 7.078-7.887 7.381c-0.176 0.164-0.285 0.397-0.285 0.656 0 0.496 0.402 0.897 0.897 0.897 0.237 0 0.452-0.092 0.613-0.242l-0 0 8.006-7.488 2.172 1.939c0.157 0.139 0.364 0.224 0.592 0.224 0.231 0 0.441-0.087 0.6-0.231l-0.001 0.001 2.231-2.001 7.957 7.563c0.16 0.154 0.377 0.249 0.617 0.249 0.256 0 0.488-0.109 0.65-0.282l0-0c0.151-0.16 0.244-0.376 0.244-0.614 0-0.255-0.107-0.485-0.277-0.648l-0-0-7.859-7.465z"></path>
        </symbol>
        <symbol id="icon-call" viewBox="0 0 32 32">
            <path d="M31.159 24.687l-6.477-4.32c-0.293-0.196-0.654-0.313-1.042-0.313-0.602 0-1.139 0.282-1.485 0.721l-0.003 0.004-1.888 2.426c-0.149 0.194-0.381 0.318-0.642 0.318-0.143 0-0.278-0.037-0.395-0.103l0.004 0.002-0.361-0.198c-1.188-0.649-2.669-1.455-5.653-4.437-2.98-2.987-3.789-4.467-4.437-5.653l-0.198-0.361c-0.065-0.114-0.104-0.25-0.104-0.396 0-0.261 0.124-0.492 0.315-0.64l0.002-0.001 2.426-1.886c0.443-0.35 0.725-0.887 0.725-1.489 0-0.388-0.117-0.749-0.318-1.050l0.004 0.007-4.32-6.477c-0.342-0.508-0.915-0.838-1.566-0.838-0.358 0-0.692 0.1-0.977 0.273l0.008-0.005-2.709 1.626c-0.841 0.501-1.464 1.293-1.734 2.234l-0.007 0.027c-0.977 3.554-0.243 9.687 8.791 18.722 7.187 7.187 12.538 9.12 16.213 9.12 0.011 0 0.023 0 0.036 0 0.879 0 1.73-0.12 2.537-0.344l-0.066 0.016c0.968-0.277 1.761-0.9 2.252-1.723l0.010-0.017 1.63-2.709c0.168-0.276 0.268-0.61 0.268-0.968 0-0.651-0.331-1.225-0.833-1.562l-0.007-0.004zM30.812 26.675l-1.626 2.709c-0.358 0.614-0.941 1.067-1.626 1.259-3.281 0.902-9.011 0.156-17.685-8.516-8.674-8.674-9.419-14.404-8.518-17.685 0.194-0.687 0.646-1.269 1.261-1.63l2.709-1.623c0.12-0.074 0.266-0.118 0.422-0.118 0.282 0 0.53 0.143 0.677 0.36l0.002 0.003 2.347 3.524 1.969 2.953c0.085 0.127 0.136 0.284 0.136 0.452 0 0.262-0.122 0.495-0.313 0.645l-0.002 0.001-2.423 1.886c-0.448 0.345-0.733 0.88-0.733 1.483 0 0.335 0.088 0.65 0.243 0.922l-0.005-0.009 0.192 0.35c0.683 1.25 1.53 2.805 4.623 5.899s4.646 3.94 5.897 4.621l0.35 0.192c0.263 0.15 0.578 0.239 0.914 0.239 0.602 0 1.137-0.285 1.479-0.727l0.003-0.004 1.886-2.426c0.152-0.192 0.384-0.313 0.645-0.313 0.169 0 0.326 0.051 0.456 0.138l-0.003-0.002 6.477 4.32c0.363 0.241 0.474 0.725 0.247 1.099zM18.133 5.335c5.005 0.005 9.062 4.061 9.067 9.066v0c0 0.295 0.239 0.533 0.533 0.533s0.533-0.239 0.533-0.533v0c-0.005-5.595-4.539-10.129-10.133-10.135h-0.001c-0.295 0-0.533 0.239-0.533 0.533s0.239 0.533 0.533 0.533v0z"></path>
            <path d="M18.133 8.535c3.239 0.004 5.863 2.628 5.867 5.866v0c0 0.295 0.239 0.533 0.533 0.533s0.533-0.239 0.533-0.533v0c-0.002-3.829-3.105-6.932-6.933-6.935h-0c-0.295 0-0.533 0.239-0.533 0.533s0.239 0.533 0.533 0.533v0z"></path>
            <path d="M18.133 11.735c1.472 0 2.665 1.195 2.667 2.667 0 0.295 0.239 0.533 0.533 0.533s0.533-0.239 0.533-0.533v0c-0.001-2.062-1.672-3.733-3.733-3.735h-0c-0.295 0-0.533 0.239-0.533 0.533s0.239 0.533 0.533 0.533v0z"></path>
        </symbol>
        <symbol id="icon-placeholder" viewBox="0 0 32 32">
            <path d="M15.979 0c-6.474 0.007-11.721 5.253-11.729 11.726v0.001c0 2.972 1.873 7.168 5.564 12.476 1.85 2.639 3.645 4.923 5.55 7.107l-0.085-0.099 0.7 0.789 0.7-0.789c1.82-2.084 3.613-4.368 5.286-6.743l0.177-0.265c3.691-5.308 5.564-9.504 5.564-12.476-0.009-6.473-5.254-11.718-11.726-11.727h-0.001zM20.617 23.119c-1.615 2.299-3.137 4.265-4.741 6.16l0.103-0.125c-1.498-1.766-3.018-3.727-4.451-5.754l-0.178-0.266c-3.42-4.915-5.227-8.862-5.227-11.407 0.007-5.44 4.416-9.849 9.855-9.856h0.001c5.44 0.007 9.849 4.416 9.856 9.855v0.001c0 2.543-1.805 6.483-5.218 11.392z"></path>
            <path d="M15.977 4.335c-3.821 0.004-6.918 3.1-6.923 6.92v0c0.004 3.823 3.102 6.92 6.925 6.923h0c3.821-0.005 6.917-3.102 6.921-6.922v-0c-0.005-3.82-3.1-6.916-6.92-6.921h-0zM15.977 16.307c-2.79-0.001-5.051-2.262-5.054-5.052v-0c0.005-2.789 2.267-5.047 5.056-5.047 0 0 0 0 0 0v0c2.787 0.004 5.046 2.262 5.050 5.049v0c-0.004 2.787-2.262 5.046-5.049 5.050h-0z"></path>
        </symbol>
        <symbol id="icon-right-arrow" viewBox="0 0 32 32">
            <path d="M10.022 30.090c-0.18 0.184-0.431 0.298-0.708 0.298-0.003 0-0.006 0-0.009-0h0c-0 0-0.001 0-0.001 0-0.562 0-1.018-0.456-1.018-1.018 0-0.281 0.114-0.536 0.299-0.72v0l12.65-12.65-12.65-12.65c-0.184-0.184-0.298-0.439-0.298-0.72 0-0.562 0.456-1.018 1.018-1.018 0.281 0 0.536 0.114 0.72 0.298l13.366 13.37c0.184 0.184 0.299 0.439 0.299 0.72s-0.114 0.536-0.299 0.72v0l-13.37 13.37z"></path>
        </symbol>
    </defs>
</svg>
